<?xml version="1.0" encoding="UTF-8" standalone="no"?>
<!-- Generator: Adobe Illustrator 19.0.0, SVG Export Plug-In . SVG Version: 6.00 Build 0)  -->

<svg
   xmlns:dc="http://purl.org/dc/elements/1.1/"
   xmlns:cc="http://creativecommons.org/ns#"
   xmlns:rdf="http://www.w3.org/1999/02/22-rdf-syntax-ns#"
   xmlns:svg="http://www.w3.org/2000/svg"
   xmlns="http://www.w3.org/2000/svg"
   xmlns:xlink="http://www.w3.org/1999/xlink"
   xmlns:sodipodi="http://sodipodi.sourceforge.net/DTD/sodipodi-0.dtd"
   xmlns:inkscape="http://www.inkscape.org/namespaces/inkscape"
   version="1.1"
   id="Capa_1"
   x="0px"
   y="0px"
   viewBox="0 0 384.97 384.97"
   style="enable-background:new 0 0 384.97 384.97;"
   xml:space="preserve"
   sodipodi:docname="menu.svg"
   inkscape:version="0.92.3 (2405546, 2018-03-11)"><metadata
   id="metadata261"><rdf:RDF><cc:Work
       rdf:about=""><dc:format>image/svg+xml</dc:format><dc:type
         rdf:resource="http://purl.org/dc/dcmitype/StillImage" /></cc:Work></rdf:RDF></metadata><defs
   id="defs259"><linearGradient
     inkscape:collect="always"
     id="linearGradient5097"><stop
       style="stop-color:#000000;stop-opacity:1;"
       offset="0"
       id="stop5093" /><stop
       style="stop-color:#000000;stop-opacity:0;"
       offset="1"
       id="stop5095" /></linearGradient><linearGradient
     inkscape:collect="always"
     id="linearGradient5089"><stop
       style="stop-color:#000000;stop-opacity:1;"
       offset="0"
       id="stop5085" /><stop
       style="stop-color:#000000;stop-opacity:0;"
       offset="1"
       id="stop5087" /></linearGradient><linearGradient
     inkscape:collect="always"
     id="linearGradient5081"><stop
       style="stop-color:#000000;stop-opacity:1;"
       offset="0"
       id="stop5077" /><stop
       style="stop-color:#000000;stop-opacity:0;"
       offset="1"
       id="stop5079" /></linearGradient><linearGradient
     inkscape:collect="always"
     id="linearGradient5073"><stop
       style="stop-color:#000000;stop-opacity:1;"
       offset="0"
       id="stop5069" /><stop
       style="stop-color:#000000;stop-opacity:0;"
       offset="1"
       id="stop5071" /></linearGradient><linearGradient
     inkscape:collect="always"
     id="linearGradient5065"><stop
       style="stop-color:#000000;stop-opacity:1;"
       offset="0"
       id="stop5061" /><stop
       style="stop-color:#000000;stop-opacity:0;"
       offset="1"
       id="stop5063" /></linearGradient><linearGradient
     inkscape:collect="always"
     id="linearGradient5057"><stop
       style="stop-color:#000000;stop-opacity:1;"
       offset="0"
       id="stop5053" /><stop
       style="stop-color:#000000;stop-opacity:0;"
       offset="1"
       id="stop5055" /></linearGradient><linearGradient
     inkscape:collect="always"
     id="linearGradient5049"><stop
       style="stop-color:#000000;stop-opacity:1;"
       offset="0"
       id="stop5045" /><stop
       style="stop-color:#000000;stop-opacity:0;"
       offset="1"
       id="stop5047" /></linearGradient><linearGradient
     inkscape:collect="always"
     id="linearGradient5041"><stop
       style="stop-color:#000000;stop-opacity:1;"
       offset="0"
       id="stop5037" /><stop
       style="stop-color:#000000;stop-opacity:0;"
       offset="1"
       id="stop5039" /></linearGradient><linearGradient
     inkscape:collect="always"
     id="linearGradient5033"><stop
       style="stop-color:#000000;stop-opacity:1;"
       offset="0"
       id="stop5029" /><stop
       style="stop-color:#000000;stop-opacity:0;"
       offset="1"
       id="stop5031" /></linearGradient><linearGradient
     inkscape:collect="always"
     id="linearGradient5025"><stop
       style="stop-color:#000000;stop-opacity:1;"
       offset="0"
       id="stop5021" /><stop
       style="stop-color:#000000;stop-opacity:0;"
       offset="1"
       id="stop5023" /></linearGradient><linearGradient
     inkscape:collect="always"
     id="linearGradient5017"><stop
       style="stop-color:#000000;stop-opacity:1;"
       offset="0"
       id="stop5013" /><stop
       style="stop-color:#000000;stop-opacity:0;"
       offset="1"
       id="stop5015" /></linearGradient><linearGradient
     inkscape:collect="always"
     id="linearGradient5009"><stop
       style="stop-color:#000000;stop-opacity:1;"
       offset="0"
       id="stop5005" /><stop
       style="stop-color:#000000;stop-opacity:0;"
       offset="1"
       id="stop5007" /></linearGradient><linearGradient
     inkscape:collect="always"
     id="linearGradient5001"><stop
       style="stop-color:#000000;stop-opacity:1;"
       offset="0"
       id="stop4997" /><stop
       style="stop-color:#000000;stop-opacity:0;"
       offset="1"
       id="stop4999" /></linearGradient><linearGradient
     inkscape:collect="always"
     id="linearGradient4993"><stop
       style="stop-color:#000000;stop-opacity:1;"
       offset="0"
       id="stop4989" /><stop
       style="stop-color:#000000;stop-opacity:0;"
       offset="1"
       id="stop4991" /></linearGradient><linearGradient
     inkscape:collect="always"
     id="linearGradient4985"><stop
       style="stop-color:#000000;stop-opacity:1;"
       offset="0"
       id="stop4981" /><stop
       style="stop-color:#000000;stop-opacity:0;"
       offset="1"
       id="stop4983" /></linearGradient><linearGradient
     inkscape:collect="always"
     id="linearGradient4977"><stop
       style="stop-color:#000000;stop-opacity:1;"
       offset="0"
       id="stop4973" /><stop
       style="stop-color:#000000;stop-opacity:0;"
       offset="1"
       id="stop4975" /></linearGradient><linearGradient
     inkscape:collect="always"
     xlink:href="#linearGradient4977"
     id="linearGradient4979"
     x1="0"
     y1="192.485"
     x2="384.969"
     y2="192.485"
     gradientUnits="userSpaceOnUse" /><linearGradient
     inkscape:collect="always"
     xlink:href="#linearGradient4985"
     id="linearGradient4987" /><linearGradient
     inkscape:collect="always"
     xlink:href="#linearGradient4993"
     id="linearGradient4995" /><linearGradient
     inkscape:collect="always"
     xlink:href="#linearGradient5001"
     id="linearGradient5003" /><linearGradient
     inkscape:collect="always"
     xlink:href="#linearGradient5009"
     id="linearGradient5011" /><linearGradient
     inkscape:collect="always"
     xlink:href="#linearGradient5017"
     id="linearGradient5019" /><linearGradient
     inkscape:collect="always"
     xlink:href="#linearGradient5025"
     id="linearGradient5027" /><linearGradient
     inkscape:collect="always"
     xlink:href="#linearGradient5033"
     id="linearGradient5035" /><linearGradient
     inkscape:collect="always"
     xlink:href="#linearGradient5041"
     id="linearGradient5043" /><linearGradient
     inkscape:collect="always"
     xlink:href="#linearGradient5049"
     id="linearGradient5051" /><linearGradient
     inkscape:collect="always"
     xlink:href="#linearGradient5057"
     id="linearGradient5059" /><linearGradient
     inkscape:collect="always"
     xlink:href="#linearGradient5065"
     id="linearGradient5067" /><linearGradient
     inkscape:collect="always"
     xlink:href="#linearGradient5073"
     id="linearGradient5075" /><linearGradient
     inkscape:collect="always"
     xlink:href="#linearGradient5081"
     id="linearGradient5083" /><linearGradient
     inkscape:collect="always"
     xlink:href="#linearGradient5089"
     id="linearGradient5091" /><linearGradient
     inkscape:collect="always"
     xlink:href="#linearGradient5097"
     id="linearGradient5099" /></defs><sodipodi:namedview
   pagecolor="#ffffff"
   bordercolor="#666666"
   borderopacity="1"
   objecttolerance="10"
   gridtolerance="10"
   guidetolerance="10"
   inkscape:pageopacity="0"
   inkscape:pageshadow="2"
   inkscape:window-width="1920"
   inkscape:window-height="1040"
   id="namedview257"
   showgrid="false"
   inkscape:zoom="0.61303478"
   inkscape:cx="-89.717585"
   inkscape:cy="192.485"
   inkscape:window-x="0"
   inkscape:window-y="0"
   inkscape:window-maximized="1"
   inkscape:current-layer="Capa_1" />
















<g
   id="g224"
   style="fill-opacity:1;fill:#481b90">
	<g
   id="Menu_1_"
   style="fill-opacity:1;fill:#481b90">
		<path
   inkscape:connector-curvature="0"
   d="m 12.03,120.303 h 360.909 c 6.641,0 12.03,-5.39 12.03,-12.03 0,-6.641 -5.39,-12.03 -12.03,-12.03 H 12.03 c -6.641,0 -12.03,5.39 -12.03,12.03 0,6.64 5.39,12.03 12.03,12.03 z"
   id="path205"
   style="fill-opacity:1;fill:#481b90" />
		<path
   inkscape:connector-curvature="0"
   d="M 372.939,180.455 H 12.03 c -6.641,0 -12.03,5.39 -12.03,12.03 0,6.64 5.39,12.03 12.03,12.03 h 360.909 c 6.641,0 12.03,-5.39 12.03,-12.03 0,-6.64 -5.389,-12.03 -12.03,-12.03 z"
   id="path207"
   style="fill-opacity:1;fill:#481b90" />
		<path
   inkscape:connector-curvature="0"
   d="M 372.939,264.667 H 132.333 c -6.641,0 -12.03,5.39 -12.03,12.03 0,6.641 5.39,12.03 12.03,12.03 h 240.606 c 6.641,0 12.03,-5.39 12.03,-12.03 0.001,-6.641 -5.389,-12.03 -12.03,-12.03 z"
   id="path209"
   style="fill-opacity:1;fill:#481b90" />
	</g>
	<g
   id="g212"
   style="fill-opacity:1;fill:#481b90">
	</g>
	<g
   id="g214"
   style="fill-opacity:1;fill:#481b90">
	</g>
	<g
   id="g216"
   style="fill-opacity:1;fill:#481b90">
	</g>
	<g
   id="g218"
   style="fill-opacity:1;fill:#481b90">
	</g>
	<g
   id="g220"
   style="fill-opacity:1;fill:#481b90">
	</g>
	<g
   id="g222"
   style="fill-opacity:1;fill:#481b90">
	</g>
</g><g
   id="g226"
   style="fill-opacity:1;fill:#481b90">
</g><g
   id="g228"
   style="fill-opacity:1;fill:#481b90">
</g><g
   id="g230"
   style="fill-opacity:1;fill:#481b90">
</g><g
   id="g232"
   style="fill-opacity:1;fill:#481b90">
</g><g
   id="g234"
   style="fill-opacity:1;fill:#481b90">
</g><g
   id="g236"
   style="fill-opacity:1;fill:#481b90">
</g><g
   id="g238"
   style="fill-opacity:1;fill:#481b90">
</g><g
   id="g240"
   style="fill-opacity:1;fill:#481b90">
</g><g
   id="g242"
   style="fill-opacity:1;fill:#481b90">
</g><g
   id="g244"
   style="fill-opacity:1;fill:#481b90">
</g><g
   id="g246"
   style="fill-opacity:1;fill:#481b90">
</g><g
   id="g248"
   style="fill-opacity:1;fill:#481b90">
</g><g
   id="g250"
   style="fill-opacity:1;fill:#481b90">
</g><g
   id="g252"
   style="fill-opacity:1;fill:#481b90">
</g><g
   id="g254"
   style="fill-opacity:1;fill:#481b90">
</g><path
   style="fill:#481b90;fill-opacity:1;stroke-width:1.6312288"
   d="m 6.0130076,201.75721 c -6.95332701,-4.04436 -6.04748558,-15.72874 1.4854712,-19.16099 5.8133712,-2.64875 364.1596712,-2.64875 369.9730412,0 7.69958,3.50817 8.42213,15.36356 1.17282,19.24327 -4.52752,2.42306 -368.462147,2.3427 -372.6313324,-0.0823 z"
   id="path4785"
   inkscape:connector-curvature="0" /><path
   style="fill:#481b90;fill-opacity:1;stroke-width:1.6312288"
   d="m 6.0130076,201.75721 c -6.95332701,-4.04436 -6.04748558,-15.72874 1.4854712,-19.16099 5.8133712,-2.64875 364.1596712,-2.64875 369.9730412,0 7.69958,3.50817 8.42213,15.36356 1.17282,19.24327 -4.52752,2.42306 -368.462147,2.3427 -372.6313324,-0.0823 z"
   id="path4787"
   inkscape:connector-curvature="0" /><path
   style="fill:#481b90;fill-opacity:1;stroke-width:1.6312288"
   d="m 6.0130076,201.75721 c -6.95332701,-4.04436 -6.04748558,-15.72874 1.4854712,-19.16099 5.8133712,-2.64875 364.1596712,-2.64875 369.9730412,0 7.69958,3.50817 8.42213,15.36356 1.17282,19.24327 -4.52752,2.42306 -368.462147,2.3427 -372.6313324,-0.0823 z"
   id="path4789"
   inkscape:connector-curvature="0" /><path
   style="fill:#481b90;fill-opacity:1;stroke-width:1.6312288"
   d="m 6.0130076,201.75721 c -6.95332701,-4.04436 -6.04748558,-15.72874 1.4854712,-19.16099 5.8133712,-2.64875 364.1596712,-2.64875 369.9730412,0 7.69958,3.50817 8.42213,15.36356 1.17282,19.24327 -4.52752,2.42306 -368.462147,2.3427 -372.6313324,-0.0823 z"
   id="path4791"
   inkscape:connector-curvature="0" /><path
   style="fill:#481b90;fill-opacity:1;stroke-width:1.6312288"
   d="m 6.0130076,201.75721 c -6.95332701,-4.04436 -6.04748558,-15.72874 1.4854712,-19.16099 5.8133712,-2.64875 364.1596712,-2.64875 369.9730412,0 7.69958,3.50817 8.42213,15.36356 1.17282,19.24327 -4.52752,2.42306 -368.462147,2.3427 -372.6313324,-0.0823 z"
   id="path4793"
   inkscape:connector-curvature="0" /><path
   style="fill:#481b90;fill-opacity:1;stroke-width:1.6312288"
   d="m 6.0130076,201.75721 c -6.95332701,-4.04436 -6.04748558,-15.72874 1.4854712,-19.16099 5.8133712,-2.64875 364.1596712,-2.64875 369.9730412,0 7.69958,3.50817 8.42213,15.36356 1.17282,19.24327 -4.52752,2.42306 -368.462147,2.3427 -372.6313324,-0.0823 z"
   id="path4795"
   inkscape:connector-curvature="0" /><path
   style="fill:#481b90;fill-opacity:1;stroke-width:1.6312288"
   d="m 6.0130076,201.75721 c -6.95332701,-4.04436 -6.04748558,-15.72874 1.4854712,-19.16099 5.8133712,-2.64875 364.1596712,-2.64875 369.9730412,0 7.69958,3.50817 8.42213,15.36356 1.17282,19.24327 -4.52752,2.42306 -368.462147,2.3427 -372.6313324,-0.0823 z"
   id="path4797"
   inkscape:connector-curvature="0" /><path
   style="fill:#481b90;fill-opacity:1;stroke-width:1.6312288"
   d="m 6.0130076,201.75721 c -6.95332701,-4.04436 -6.04748558,-15.72874 1.4854712,-19.16099 5.8133712,-2.64875 364.1596712,-2.64875 369.9730412,0 7.69958,3.50817 8.42213,15.36356 1.17282,19.24327 -4.52752,2.42306 -368.462147,2.3427 -372.6313324,-0.0823 z"
   id="path4799"
   inkscape:connector-curvature="0" /><path
   style="fill:#481b90;fill-opacity:1;stroke-width:1.6312288"
   d="m 6.0130076,201.75721 c -6.95332701,-4.04436 -6.04748558,-15.72874 1.4854712,-19.16099 5.8133712,-2.64875 364.1596712,-2.64875 369.9730412,0 7.69958,3.50817 8.42213,15.36356 1.17282,19.24327 -4.52752,2.42306 -368.462147,2.3427 -372.6313324,-0.0823 z"
   id="path4801"
   inkscape:connector-curvature="0" /><path
   style="fill:#481b90;fill-opacity:1;stroke-width:1.6312288"
   d="m 6.0130076,201.75721 c -6.95332701,-4.04436 -6.04748558,-15.72874 1.4854712,-19.16099 5.8133712,-2.64875 364.1596712,-2.64875 369.9730412,0 7.69958,3.50817 8.42213,15.36356 1.17282,19.24327 -4.52752,2.42306 -368.462147,2.3427 -372.6313324,-0.0823 z"
   id="path4803"
   inkscape:connector-curvature="0" /><path
   style="fill:#481b90;fill-opacity:1;stroke-width:1.6312288"
   d="m 4.1269887,115.54505 c -3.71497162,-4.10499 -3.71497162,-10.68416 0,-14.78916 2.8548266,-3.154549 6.0166683,-3.208407 188.3580113,-3.208407 182.34135,0 185.50318,0.05386 188.35801,3.208407 3.71498,4.105 3.71498,10.68417 0,14.78916 -2.85483,3.15455 -6.01666,3.20841 -188.35801,3.20841 -182.341343,0 -185.5031847,-0.0539 -188.3580113,-3.20841 z"
   id="path4805"
   inkscape:connector-curvature="0" /><path
   style="fill:#481b90;fill-opacity:1;stroke-width:1.6312288"
   d="m 4.1269887,115.54505 c -3.71497162,-4.10499 -3.71497162,-10.68416 0,-14.78916 2.8548266,-3.154549 6.0166683,-3.208407 188.3580113,-3.208407 182.34135,0 185.50318,0.05386 188.35801,3.208407 3.71498,4.105 3.71498,10.68417 0,14.78916 -2.85483,3.15455 -6.01666,3.20841 -188.35801,3.20841 -182.341343,0 -185.5031847,-0.0539 -188.3580113,-3.20841 z"
   id="path4807"
   inkscape:connector-curvature="0" /></svg>